<svg xmlns="http://www.w3.org/2000/svg" xmlns:xlink="http://www.w3.org/1999/xlink" width="1000" zoomAndPan="magnify" viewBox="0 0 375 374.999991" height="1000" preserveAspectRatio="xMidYMid meet" version="1.0"><defs><g/><clipPath id="38d51f1ff8"><path d="M 161 147.617188 L 214 147.617188 L 214 227.117188 L 161 227.117188 Z M 161 147.617188 " clip-rule="nonzero"/></clipPath></defs><g clip-path="url(#38d51f1ff8)"><path fill="#e63946" d="M 208.300781 154.339844 L 208.300781 152.816406 C 208.300781 149.949219 205.96875 147.617188 203.101562 147.617188 L 171.890625 147.617188 C 169.023438 147.617188 166.6875 149.949219 166.6875 152.816406 L 166.6875 154.339844 C 164.121094 156.910156 161.488281 158.835938 161.488281 162.773438 L 161.488281 212.214844 C 161.488281 216.09375 163.878906 217.839844 166.6875 220.648438 L 166.6875 222.171875 C 166.6875 225.039062 169.023438 227.375 171.890625 227.375 L 203.101562 227.375 C 205.96875 227.375 208.300781 225.039062 208.300781 222.171875 L 208.300781 220.648438 C 210.867188 218.082031 213.503906 216.152344 213.503906 212.214844 L 213.503906 162.773438 C 213.503906 158.84375 210.878906 156.917969 208.300781 154.339844 Z M 171.890625 155.417969 L 171.890625 152.816406 L 203.101562 152.816406 L 203.101562 155.417969 C 203.101562 156.652344 203.777344 157.171875 204.625 158.019531 L 170.367188 158.019531 C 171.21875 157.167969 171.890625 156.648438 171.890625 155.417969 Z M 203.101562 219.570312 L 203.101562 222.171875 L 171.890625 222.171875 L 171.890625 219.570312 C 171.890625 218.335938 171.214844 217.800781 170.367188 216.953125 L 204.625 216.953125 C 203.769531 217.804688 203.101562 218.339844 203.101562 219.570312 Z M 208.300781 194.988281 C 201.84375 200.28125 195.144531 199.894531 189.328125 194.320312 C 189.324219 194.316406 189.324219 194.316406 189.324219 194.316406 C 183.324219 188.347656 174.914062 186.273438 166.6875 191.039062 L 166.6875 180 C 173.148438 174.707031 179.84375 175.097656 185.660156 180.671875 C 185.664062 180.671875 185.664062 180.671875 185.664062 180.671875 C 191.660156 186.625 200.054688 188.726562 208.300781 183.949219 Z M 208.300781 194.988281 " fill-opacity="1" fill-rule="nonzero"/></g><g fill="#e63946" fill-opacity="1"><g transform="translate(61.921635, 197.999987)"><g><path d="M 15 -26.46875 C 17.4375 -26.46875 19.515625 -26.046875 21.234375 -25.203125 L 21.234375 -19.21875 L 21.1875 -19.1875 C 20.457031 -20.300781 18.921875 -21.039062 16.578125 -21.40625 C 15.890625 -21.519531 15.019531 -21.578125 13.96875 -21.578125 C 12.914062 -21.578125 11.878906 -21.378906 10.859375 -20.984375 C 9.847656 -20.585938 9.015625 -20.023438 8.359375 -19.296875 C 7.097656 -17.878906 6.46875 -15.851562 6.46875 -13.21875 C 6.46875 -10.164062 7.269531 -7.890625 8.875 -6.390625 C 10.195312 -5.140625 11.953125 -4.515625 14.140625 -4.515625 C 16.617188 -4.515625 18.625 -5.039062 20.15625 -6.09375 C 20.71875 -6.46875 21.191406 -6.9375 21.578125 -7.5 L 21.640625 -7.46875 L 21.640625 -2 C 19.648438 -0.34375 16.96875 0.484375 13.59375 0.484375 C 9.625 0.484375 6.515625 -0.773438 4.265625 -3.296875 C 2.097656 -5.710938 1.015625 -8.90625 1.015625 -12.875 C 1.015625 -17.082031 2.203125 -20.394531 4.578125 -22.8125 C 6.972656 -25.25 10.445312 -26.46875 15 -26.46875 Z M 15 -26.46875 "/></g></g></g><g fill="#e63946" fill-opacity="1"><g transform="translate(85.122493, 197.999987)"><g><path d="M 8.171875 -2.1875 C 8.171875 -1.070312 8.195312 -0.34375 8.25 0 L 3.375 0 L 3.375 -27.9375 L 8.171875 -27.9375 L 8.171875 -18.890625 C 9.847656 -20.160156 11.578125 -20.796875 13.359375 -20.796875 C 15.546875 -20.796875 17.304688 -20.078125 18.640625 -18.640625 C 19.941406 -17.191406 20.59375 -15.273438 20.59375 -12.890625 L 20.59375 -5.125 C 20.59375 -2.914062 20.625 -1.585938 20.6875 -1.140625 C 20.75 -0.703125 20.832031 -0.414062 20.9375 -0.28125 C 21.050781 -0.15625 21.148438 -0.0390625 21.234375 0.0625 L 21.1875 0.140625 C 20.132812 0.046875 19.367188 0 18.890625 0 L 17.5 0 C 17.070312 0 16.503906 0.0195312 15.796875 0.0625 L 15.796875 -11.25 C 15.796875 -13.050781 15.398438 -14.378906 14.609375 -15.234375 C 14.015625 -15.890625 13.203125 -16.21875 12.171875 -16.21875 C 10.648438 -16.21875 9.316406 -15.335938 8.171875 -13.578125 Z M 8.171875 -2.1875 "/></g></g></g><g fill="#e63946" fill-opacity="1"><g transform="translate(108.421003, 197.999987)"><g><path d="M 7.484375 -2.1875 C 7.484375 -1.070312 7.507812 -0.34375 7.5625 0 L 2.703125 0 L 2.703125 -20.40625 L 7.484375 -20.40625 L 7.484375 -18.90625 C 8.585938 -20.164062 9.75 -20.796875 10.96875 -20.796875 C 12.1875 -20.796875 13.144531 -20.648438 13.84375 -20.359375 L 13.5 -15.09375 L 13.421875 -15.046875 C 12.960938 -15.847656 12.019531 -16.25 10.59375 -16.25 C 10.039062 -16.25 9.476562 -16.0625 8.90625 -15.6875 C 8.34375 -15.320312 7.867188 -14.832031 7.484375 -14.21875 Z M 7.484375 -2.1875 "/></g></g></g><g fill="#e63946" fill-opacity="1"><g transform="translate(121.779072, 197.999987)"><g><path d="M 2.25 -26.234375 C 3.289062 -27.859375 4.378906 -29.289062 5.515625 -30.53125 L 9.703125 -27.234375 C 9.148438 -26.535156 8.628906 -25.859375 8.140625 -25.203125 C 8.140625 -25.203125 7.640625 -24.488281 6.640625 -23.0625 Z M 7.390625 -2.1875 C 7.390625 -1.070312 7.414062 -0.34375 7.46875 0 L 2.5 0 L 2.5 -20.40625 L 7.390625 -20.40625 Z M 7.390625 -2.1875 "/></g></g></g><g fill="#e63946" fill-opacity="1"><g transform="translate(131.797629, 197.999987)"><g><path d="M 9.75 0.296875 C 6.070312 0.296875 3.304688 -0.375 1.453125 -1.71875 C 1.472656 -2.113281 1.507812 -2.554688 1.5625 -3.046875 L 1.734375 -4.453125 C 1.835938 -5.378906 1.898438 -5.957031 1.921875 -6.1875 C 1.953125 -6.414062 1.972656 -6.535156 1.984375 -6.546875 C 2.003906 -6.566406 2.109375 -6.460938 2.296875 -6.234375 C 2.492188 -6.015625 2.863281 -5.738281 3.40625 -5.40625 C 3.957031 -5.082031 4.59375 -4.796875 5.3125 -4.546875 C 6.863281 -4.015625 8.476562 -3.75 10.15625 -3.75 C 12.40625 -3.75 13.53125 -4.5 13.53125 -6 C 13.53125 -6.476562 13.316406 -6.835938 12.890625 -7.078125 C 12.117188 -7.460938 10.988281 -7.753906 9.5 -7.953125 C 8.007812 -8.160156 6.789062 -8.457031 5.84375 -8.84375 C 4.894531 -9.238281 4.117188 -9.707031 3.515625 -10.25 C 2.410156 -11.28125 1.859375 -12.628906 1.859375 -14.296875 C 1.859375 -16.328125 2.640625 -17.921875 4.203125 -19.078125 C 5.753906 -20.222656 7.894531 -20.796875 10.625 -20.796875 C 13.332031 -20.796875 15.644531 -20.03125 17.5625 -18.5 C 17.46875 -18.15625 17.367188 -17.828125 17.265625 -17.515625 C 16.960938 -16.660156 16.742188 -16.046875 16.609375 -15.671875 L 16.15625 -14.515625 C 16.125 -14.410156 16.101562 -14.359375 16.09375 -14.359375 C 16.070312 -14.359375 15.96875 -14.492188 15.78125 -14.765625 C 14.957031 -15.710938 13.679688 -16.335938 11.953125 -16.640625 C 11.421875 -16.742188 10.875 -16.796875 10.3125 -16.796875 C 7.945312 -16.796875 6.765625 -16.082031 6.765625 -14.65625 C 6.765625 -14.15625 7.007812 -13.773438 7.5 -13.515625 C 8.425781 -13.023438 9.691406 -12.660156 11.296875 -12.421875 C 12.910156 -12.191406 14.132812 -11.875 14.96875 -11.46875 C 15.800781 -11.070312 16.46875 -10.597656 16.96875 -10.046875 C 17.90625 -9.023438 18.375 -7.675781 18.375 -6 C 18.375 -4.164062 17.640625 -2.675781 16.171875 -1.53125 C 14.640625 -0.3125 12.5 0.296875 9.75 0.296875 Z M 9.75 0.296875 "/></g></g></g><g fill="#e63946" fill-opacity="1"><g transform="translate(217.649126, 197.999987)"><g><path d="M 15 -26.46875 C 17.4375 -26.46875 19.515625 -26.046875 21.234375 -25.203125 L 21.234375 -19.21875 L 21.1875 -19.1875 C 20.457031 -20.300781 18.921875 -21.039062 16.578125 -21.40625 C 15.890625 -21.519531 15.019531 -21.578125 13.96875 -21.578125 C 12.914062 -21.578125 11.878906 -21.378906 10.859375 -20.984375 C 9.847656 -20.585938 9.015625 -20.023438 8.359375 -19.296875 C 7.097656 -17.878906 6.46875 -15.851562 6.46875 -13.21875 C 6.46875 -10.164062 7.269531 -7.890625 8.875 -6.390625 C 10.195312 -5.140625 11.953125 -4.515625 14.140625 -4.515625 C 16.617188 -4.515625 18.625 -5.039062 20.15625 -6.09375 C 20.71875 -6.46875 21.191406 -6.9375 21.578125 -7.5 L 21.640625 -7.46875 L 21.640625 -2 C 19.648438 -0.34375 16.96875 0.484375 13.59375 0.484375 C 9.625 0.484375 6.515625 -0.773438 4.265625 -3.296875 C 2.097656 -5.710938 1.015625 -8.90625 1.015625 -12.875 C 1.015625 -17.082031 2.203125 -20.394531 4.578125 -22.8125 C 6.972656 -25.25 10.445312 -26.46875 15 -26.46875 Z M 15 -26.46875 "/></g></g></g><g fill="#e63946" fill-opacity="1"><g transform="translate(240.849984, 197.999987)"><g><path d="M 1.390625 -10.09375 C 1.390625 -11.53125 1.632812 -12.898438 2.125 -14.203125 C 2.613281 -15.515625 3.3125 -16.660156 4.21875 -17.640625 C 6.207031 -19.742188 8.789062 -20.796875 11.96875 -20.796875 C 15.132812 -20.796875 17.648438 -19.800781 19.515625 -17.8125 C 21.296875 -15.914062 22.1875 -13.445312 22.1875 -10.40625 C 22.1875 -7.375 21.269531 -4.863281 19.4375 -2.875 C 17.5 -0.757812 14.925781 0.296875 11.71875 0.296875 C 8.414062 0.296875 5.828125 -0.738281 3.953125 -2.8125 C 2.242188 -4.695312 1.390625 -7.125 1.390625 -10.09375 Z M 6.140625 -10.21875 C 6.140625 -9.394531 6.273438 -8.597656 6.546875 -7.828125 C 6.816406 -7.066406 7.207031 -6.410156 7.71875 -5.859375 C 8.800781 -4.671875 10.21875 -4.078125 11.96875 -4.078125 C 13.601562 -4.078125 14.890625 -4.660156 15.828125 -5.828125 C 16.734375 -6.941406 17.1875 -8.398438 17.1875 -10.203125 C 17.1875 -12.023438 16.71875 -13.492188 15.78125 -14.609375 C 14.78125 -15.804688 13.40625 -16.40625 11.65625 -16.40625 C 9.882812 -16.40625 8.5 -15.769531 7.5 -14.5 C 6.59375 -13.320312 6.140625 -11.894531 6.140625 -10.21875 Z M 6.140625 -10.21875 "/></g></g></g><g fill="#e63946" fill-opacity="1"><g transform="translate(264.226612, 197.999987)"><g><path d="M 16.875 -1.09375 C 15.21875 -0.164062 13.5625 0.296875 11.90625 0.296875 C 10.257812 0.296875 8.816406 0.0351562 7.578125 -0.484375 C 6.335938 -1.003906 5.285156 -1.722656 4.421875 -2.640625 C 2.617188 -4.515625 1.71875 -6.945312 1.71875 -9.9375 C 1.71875 -13.039062 2.757812 -15.617188 4.84375 -17.671875 C 6.9375 -19.753906 9.617188 -20.796875 12.890625 -20.796875 C 13.890625 -20.796875 14.875 -20.664062 15.84375 -20.40625 L 15.84375 -29.109375 L 20.625 -29.109375 L 20.625 -8.21875 C 20.625 -6.488281 20.703125 -5.359375 20.859375 -4.828125 C 21.023438 -4.296875 21.207031 -3.90625 21.40625 -3.65625 C 21.613281 -3.40625 21.875 -3.171875 22.1875 -2.953125 L 18.515625 0.296875 C 17.835938 -0.0664062 17.289062 -0.53125 16.875 -1.09375 Z M 12.828125 -4.203125 C 13.921875 -4.203125 14.925781 -4.410156 15.84375 -4.828125 L 15.84375 -15.640625 C 14.925781 -16.023438 13.929688 -16.21875 12.859375 -16.21875 C 11.796875 -16.21875 10.882812 -16.070312 10.125 -15.78125 C 9.363281 -15.5 8.710938 -15.101562 8.171875 -14.59375 C 7.023438 -13.519531 6.453125 -12.132812 6.453125 -10.4375 C 6.453125 -8.570312 6.972656 -7.085938 8.015625 -5.984375 C 9.128906 -4.796875 10.734375 -4.203125 12.828125 -4.203125 Z M 12.828125 -4.203125 "/></g></g></g><g fill="#e63946" fill-opacity="1"><g transform="translate(287.603239, 197.999987)"><g><path d="M 1.890625 -10.046875 C 1.890625 -11.566406 2.148438 -12.976562 2.671875 -14.28125 C 3.191406 -15.582031 3.929688 -16.722656 4.890625 -17.703125 C 6.921875 -19.765625 9.578125 -20.796875 12.859375 -20.796875 C 15.628906 -20.796875 17.851562 -19.878906 19.53125 -18.046875 C 21.1875 -16.273438 22.015625 -14.050781 22.015625 -11.375 C 22.015625 -10.34375 21.9375 -9.640625 21.78125 -9.265625 C 20.476562 -8.898438 17.828125 -8.71875 13.828125 -8.71875 L 6.953125 -8.71875 C 7.296875 -7.320312 8.082031 -6.234375 9.3125 -5.453125 C 10.550781 -4.679688 12.160156 -4.296875 14.140625 -4.296875 C 16.210938 -4.296875 17.988281 -4.664062 19.46875 -5.40625 C 19.863281 -5.601562 20.160156 -5.785156 20.359375 -5.953125 C 20.328125 -5.410156 20.289062 -4.851562 20.25 -4.28125 L 20.046875 -1.234375 C 19.054688 -0.554688 17.453125 -0.0859375 15.234375 0.171875 C 14.585938 0.253906 13.960938 0.296875 13.359375 0.296875 C 10.054688 0.296875 7.320312 -0.664062 5.15625 -2.59375 C 2.976562 -4.539062 1.890625 -7.023438 1.890625 -10.046875 Z M 16.8125 -12.5 C 16.28125 -15.300781 14.757812 -16.703125 12.25 -16.703125 C 10.269531 -16.703125 8.765625 -15.847656 7.734375 -14.140625 C 7.421875 -13.617188 7.179688 -13.046875 7.015625 -12.421875 C 7.328125 -12.410156 7.710938 -12.398438 8.171875 -12.390625 L 9.609375 -12.390625 C 10.085938 -12.367188 10.550781 -12.359375 11 -12.359375 L 12.109375 -12.359375 C 12.773438 -12.359375 13.425781 -12.367188 14.0625 -12.390625 L 15.671875 -12.4375 C 16.097656 -12.457031 16.476562 -12.476562 16.8125 -12.5 Z M 16.8125 -12.5 "/></g></g></g></svg>